<?xml version="1.0" encoding="UTF-8"?>
<svg width="255px" height="256px" viewBox="0 0 255 256" version="1.1" xmlns="http://www.w3.org/2000/svg" xmlns:xlink="http://www.w3.org/1999/xlink">
    <title>Artboard</title>
    <defs>
        <filter x="-9.0%" y="-6.5%" width="118.1%" height="118.1%" filterUnits="objectBoundingBox" id="filter-1">
            <feOffset dx="0" dy="2" in="SourceAlpha" result="shadowOffsetOuter1"></feOffset>
            <feGaussianBlur stdDeviation="2" in="shadowOffsetOuter1" result="shadowBlurOuter1"></feGaussianBlur>
            <feColorMatrix values="0 0 0 0 0   0 0 0 0 0   0 0 0 0 0  0 0 0 0.208369755 0" type="matrix" in="shadowBlurOuter1" result="shadowMatrixOuter1"></feColorMatrix>
            <feMerge>
                <feMergeNode in="shadowMatrixOuter1"></feMergeNode>
                <feMergeNode in="SourceGraphic"></feMergeNode>
            </feMerge>
        </filter>
        <filter x="-9.5%" y="-6.5%" width="118.1%" height="118.1%" filterUnits="objectBoundingBox" id="filter-2">
            <feOffset dx="0" dy="2" in="SourceAlpha" result="shadowOffsetOuter1"></feOffset>
            <feGaussianBlur stdDeviation="2" in="shadowOffsetOuter1" result="shadowBlurOuter1"></feGaussianBlur>
            <feColorMatrix values="0 0 0 0 0   0 0 0 0 0   0 0 0 0 0  0 0 0 0.208369755 0" type="matrix" in="shadowBlurOuter1" result="shadowMatrixOuter1"></feColorMatrix>
            <feMerge>
                <feMergeNode in="shadowMatrixOuter1"></feMergeNode>
                <feMergeNode in="SourceGraphic"></feMergeNode>
            </feMerge>
        </filter>
        <filter x="-9.9%" y="-8.0%" width="119.9%" height="119.9%" filterUnits="objectBoundingBox" id="filter-3">
            <feOffset dx="0" dy="2" in="SourceAlpha" result="shadowOffsetOuter1"></feOffset>
            <feGaussianBlur stdDeviation="3" in="shadowOffsetOuter1" result="shadowBlurOuter1"></feGaussianBlur>
            <feColorMatrix values="0 0 0 0 0   0 0 0 0 0   0 0 0 0 0  0 0 0 0.297885708 0" type="matrix" in="shadowBlurOuter1" result="shadowMatrixOuter1"></feColorMatrix>
            <feMerge>
                <feMergeNode in="shadowMatrixOuter1"></feMergeNode>
                <feMergeNode in="SourceGraphic"></feMergeNode>
            </feMerge>
        </filter>
    </defs>
    <g id="Artboard" stroke="none" stroke-width="1" fill="none" fill-rule="evenodd">
        <rect fill="#20808B" x="0" y="0" width="255" height="256"></rect>
        <g id="vp-shipping-rate-4" transform="translate(18.005380, 62.994620)">
            <g id="Group-2" filter="url(#filter-1)" transform="translate(180.004233, 44.203044) rotate(2.000000) translate(-180.004233, -44.203044) translate(141.339667, 5.572869)">
                <g id="Group">
                    <g id="Shape">
                        <g id="path-1-link" fill="#000000" fill-rule="nonzero">
                            <path d="M8.5921258,77.2603499 C6.22929119,77.2603499 4.20656159,76.4197859 2.52393695,74.7386581 C0.841312318,73.05753 0,71.0365996 0,68.6758665 L0,8.58448334 C0,6.2237504 0.841312318,4.20281997 2.52393695,2.52169198 C4.20656159,0.840563993 6.22929119,0 8.5921258,0 L68.7370063,0 C71.099841,0 73.1225705,0.840563993 74.8051953,2.52169198 C76.4878198,4.20281997 77.3291321,6.2237504 77.3291321,8.58448334 L77.3291321,68.6758665 C77.3291321,71.0365996 76.4878198,73.05753 74.8051953,74.7386581 C73.1225705,76.4197859 71.099841,77.2603499 68.7370063,77.2603499 L8.5921258,77.2603499 Z" id="path-1"></path>
                        </g>
                        <g id="path-1-link" fill="#FFFFFF">
                            <path d="M8.5921258,77.2603499 C6.22929119,77.2603499 4.20656159,76.4197859 2.52393695,74.7386581 C0.841312318,73.05753 0,71.0365996 0,68.6758665 L0,8.58448334 C0,6.2237504 0.841312318,4.20281997 2.52393695,2.52169198 C4.20656159,0.840563993 6.22929119,0 8.5921258,0 L68.7370063,0 C71.099841,0 73.1225705,0.840563993 74.8051953,2.52169198 C76.4878198,4.20281997 77.3291321,6.2237504 77.3291321,8.58448334 L77.3291321,68.6758665 C77.3291321,71.0365996 76.4878198,73.05753 74.8051953,74.7386581 C73.1225705,76.4197859 71.099841,77.2603499 68.7370063,77.2603499 L8.5921258,77.2603499 Z" id="path-1"></path>
                        </g>
                    </g>
                    <g id="package_FILL0_wght400_GRAD0_opsz24" transform="translate(10.208466, 0.000000)" fill="#D8D8D8" fill-rule="nonzero">
                        <path d="M45.5552808,-1.08792039e-13 L45.5552808,34.3379334 L28.3710293,25.75345 L11.1867776,34.3379334 L11.1867776,-1.08792039e-13 L45.5552808,-1.08792039e-13 Z M-2.71402796e-13,54.3117311 L-2.71402796e-13,67.0609638 L2.65237828,67.0609638 L2.65237828,54.3117311 L-2.71402796e-13,54.3117311 Z M4.4206305,54.3117311 L4.4206305,67.0609638 L11.4936393,67.0609638 L11.4936393,54.3117311 L4.4206305,54.3117311 Z M13.2618915,54.3117311 L13.2618915,67.0609638 L15.0301437,67.0609638 L15.0301437,54.3117311 L13.2618915,54.3117311 Z M16.7983959,54.3117311 L16.7983959,67.0609638 L19.4507742,67.0609638 L19.4507742,54.3117311 L16.7983959,54.3117311 Z M21.2190263,54.3117311 L21.2190263,67.0609638 L22.9872786,67.0609638 L22.9872786,54.3117311 L21.2190263,54.3117311 Z M24.7555307,54.3117311 L24.7555307,67.0609638 L28.2920352,67.0609638 L28.2920352,54.3117311 L24.7555307,54.3117311 Z M30.0602873,54.3117311 L30.0602873,67.0609638 L31.8285396,67.0609638 L31.8285396,54.3117311 L30.0602873,54.3117311 Z M33.5967917,54.3117311 L33.5967917,67.0609638 L35.365044,67.0609638 L35.365044,54.3117311 L33.5967917,54.3117311 Z M37.1332961,54.3117311 L37.1332961,67.0609638 L44.206305,67.0609638 L44.206305,54.3117311 L37.1332961,54.3117311 Z M45.9745571,54.3117311 L45.9745571,67.0609638 L49.5110615,67.0609638 L49.5110615,54.3117311 L45.9745571,54.3117311 Z" id="Shape"></path>
                    </g>
                </g>
                <rect id="Rectangle" fill="#AB47BC" fill-rule="nonzero" x="10.2084663" y="44.6223143" width="21.9482025" height="5.09969307"></rect>
            </g>
            <g id="Group-2" filter="url(#filter-2)" transform="translate(44.231632, 44.203044) rotate(-9.000000) translate(-44.231632, -44.203044) translate(5.567066, 5.572869)">
                <g id="Group">
                    <g id="Shape">
                        <g id="path-3-link" fill="#000000" fill-rule="nonzero">
                            <path d="M8.5921258,77.2603499 C6.22929119,77.2603499 4.20656159,76.4197859 2.52393695,74.7386581 C0.841312318,73.05753 0,71.0365996 0,68.6758665 L0,8.58448334 C0,6.2237504 0.841312318,4.20281997 2.52393695,2.52169198 C4.20656159,0.840563993 6.22929119,0 8.5921258,0 L68.7370063,0 C71.099841,0 73.1225705,0.840563993 74.8051953,2.52169198 C76.4878198,4.20281997 77.3291321,6.2237504 77.3291321,8.58448334 L77.3291321,68.6758665 C77.3291321,71.0365996 76.4878198,73.05753 74.8051953,74.7386581 C73.1225705,76.4197859 71.099841,77.2603499 68.7370063,77.2603499 L8.5921258,77.2603499 Z" id="path-3"></path>
                        </g>
                        <g id="path-3-link" fill="#FFFFFF">
                            <path d="M8.5921258,77.2603499 C6.22929119,77.2603499 4.20656159,76.4197859 2.52393695,74.7386581 C0.841312318,73.05753 0,71.0365996 0,68.6758665 L0,8.58448334 C0,6.2237504 0.841312318,4.20281997 2.52393695,2.52169198 C4.20656159,0.840563993 6.22929119,0 8.5921258,0 L68.7370063,0 C71.099841,0 73.1225705,0.840563993 74.8051953,2.52169198 C76.4878198,4.20281997 77.3291321,6.2237504 77.3291321,8.58448334 L77.3291321,68.6758665 C77.3291321,71.0365996 76.4878198,73.05753 74.8051953,74.7386581 C73.1225705,76.4197859 71.099841,77.2603499 68.7370063,77.2603499 L8.5921258,77.2603499 Z" id="path-3"></path>
                        </g>
                    </g>
                    <g id="package_FILL0_wght400_GRAD0_opsz24" transform="translate(10.208466, 0.000000)" fill="#D8D8D8" fill-rule="nonzero">
                        <path d="M45.5552808,5.44444214e-13 L45.5552808,34.3379334 L28.3710293,25.75345 L11.1867776,34.3379334 L11.1867776,5.44444214e-13 L45.5552808,5.44444214e-13 Z M-1.72424801e-12,54.3117311 L-1.72424801e-12,67.0609638 L2.65237828,67.0609638 L2.65237828,54.3117311 L-1.72424801e-12,54.3117311 Z M4.4206305,54.3117311 L4.4206305,67.0609638 L11.4936393,67.0609638 L11.4936393,54.3117311 L4.4206305,54.3117311 Z M13.2618915,54.3117311 L13.2618915,67.0609638 L15.0301437,67.0609638 L15.0301437,54.3117311 L13.2618915,54.3117311 Z M16.7983959,54.3117311 L16.7983959,67.0609638 L19.4507742,67.0609638 L19.4507742,54.3117311 L16.7983959,54.3117311 Z M21.2190263,54.3117311 L21.2190263,67.0609638 L22.9872786,67.0609638 L22.9872786,54.3117311 L21.2190263,54.3117311 Z M24.7555307,54.3117311 L24.7555307,67.0609638 L28.2920352,67.0609638 L28.2920352,54.3117311 L24.7555307,54.3117311 Z M30.0602873,54.3117311 L30.0602873,67.0609638 L31.8285396,67.0609638 L31.8285396,54.3117311 L30.0602873,54.3117311 Z M33.5967917,54.3117311 L33.5967917,67.0609638 L35.365044,67.0609638 L35.365044,54.3117311 L33.5967917,54.3117311 Z M37.1332961,54.3117311 L37.1332961,67.0609638 L44.206305,67.0609638 L44.206305,54.3117311 L37.1332961,54.3117311 Z M45.9745571,54.3117311 L45.9745571,67.0609638 L49.5110615,67.0609638 L49.5110615,54.3117311 L45.9745571,54.3117311 Z" id="Shape"></path>
                    </g>
                </g>
                <rect id="Rectangle" fill="#2A97A1" fill-rule="nonzero" x="10.2084663" y="44.6223143" width="21.9482025" height="5.09969307"></rect>
            </g>
            <g id="Group-2" filter="url(#filter-3)" transform="translate(60.947995, 29.541427)">
                <g id="Group">
                    <g id="Shape">
                        <g id="path-5-link" fill="#000000" fill-rule="nonzero">
                            <path d="M11.1725992,100.463953 C8.10013443,100.463953 5.46991837,99.3709428 3.28195101,97.1849216 C1.09398367,94.9989005 0,92.3710238 0,89.3012918 L0,11.1626615 C0,8.09292958 1.09398367,5.46505303 3.28195101,3.27903181 C5.46991837,1.0930106 8.10013443,0 11.1725992,0 L89.3807937,0 C92.4532585,0 95.0834747,1.0930106 97.271442,3.27903181 C99.4594093,5.46505303 100.553393,8.09292958 100.553393,11.1626615 L100.553393,89.3012918 C100.553393,92.3710238 99.4594093,94.9989005 97.271442,97.1849216 C95.0834747,99.3709428 92.4532585,100.463953 89.3807937,100.463953 L11.1725992,100.463953 Z" id="path-5"></path>
                        </g>
                        <g id="path-5-link" fill="#FFFFFF">
                            <path d="M11.1725992,100.463953 C8.10013443,100.463953 5.46991837,99.3709428 3.28195101,97.1849216 C1.09398367,94.9989005 0,92.3710238 0,89.3012918 L0,11.1626615 C0,8.09292958 1.09398367,5.46505303 3.28195101,3.27903181 C5.46991837,1.0930106 8.10013443,0 11.1725992,0 L89.3807937,0 C92.4532585,0 95.0834747,1.0930106 97.271442,3.27903181 C99.4594093,5.46505303 100.553393,8.09292958 100.553393,11.1626615 L100.553393,89.3012918 C100.553393,92.3710238 99.4594093,94.9989005 97.271442,97.1849216 C95.0834747,99.3709428 92.4532585,100.463953 89.3807937,100.463953 L11.1725992,100.463953 Z" id="path-5"></path>
                        </g>
                    </g>
                    <g id="package_FILL0_wght400_GRAD0_opsz24" transform="translate(13.274375, 0.000000)" fill="#D8D8D8" fill-rule="nonzero">
                        <path d="M59.2368998,0 L59.2368998,44.6506459 L36.8917013,33.4879844 L14.5465029,44.6506459 L14.5465029,0 L59.2368998,0 Z M0,70.6231751 L0,87.2013854 L3.44896716,87.2013854 L3.44896716,70.6231751 L0,70.6231751 Z M5.7482786,70.6231751 L5.7482786,87.2013854 L14.9455243,87.2013854 L14.9455243,70.6231751 L5.7482786,70.6231751 Z M17.2448358,70.6231751 L17.2448358,87.2013854 L19.5441472,87.2013854 L19.5441472,70.6231751 L17.2448358,70.6231751 Z M21.8434587,70.6231751 L21.8434587,87.2013854 L25.2924258,87.2013854 L25.2924258,70.6231751 L21.8434587,70.6231751 Z M27.5917372,70.6231751 L27.5917372,87.2013854 L29.8910488,87.2013854 L29.8910488,70.6231751 L27.5917372,70.6231751 Z M32.1903601,70.6231751 L32.1903601,87.2013854 L36.7889829,87.2013854 L36.7889829,70.6231751 L32.1903601,70.6231751 Z M39.0882945,70.6231751 L39.0882945,87.2013854 L41.3876058,87.2013854 L41.3876058,70.6231751 L39.0882945,70.6231751 Z M43.6869174,70.6231751 L43.6869174,87.2013854 L45.9862287,87.2013854 L45.9862287,70.6231751 L43.6869174,70.6231751 Z M48.2855402,70.6231751 L48.2855402,87.2013854 L57.482786,87.2013854 L57.482786,70.6231751 L48.2855402,70.6231751 Z M59.7820973,70.6231751 L59.7820973,87.2013854 L64.3807201,87.2013854 L64.3807201,70.6231751 L59.7820973,70.6231751 Z" id="Shape"></path>
                    </g>
                </g>
                <rect id="Rectangle" fill="#F57C00" fill-rule="nonzero" x="13.2743753" y="58.0237355" width="28.5399069" height="6.63128406"></rect>
            </g>
        </g>
    </g>
</svg>